<svg xmlns="http://www.w3.org/2000/svg" width="24" height="29" viewBox="0 0 24 29" fill="none">
    <path
        d="M0.905426 25.2107L2.9352 21.3415C5.28546 22.9537 8.91769 24.136 12.4431 24.136C17.0368 24.136 18.8529 22.7388 18.8529 20.3742C18.8529 14.248 1.65323 19.5144 1.65323 8.65916C1.65323 3.71518 6.03328 0.490845 12.9772 0.490845C16.5026 0.490845 20.5622 1.45814 22.9124 2.96283L20.7758 6.83204C18.3187 5.21987 15.648 4.68248 12.9772 4.68248C8.70403 4.68248 6.56743 6.29465 6.56743 8.4442C6.56743 14.8929 23.7671 9.62646 23.7671 20.2668C23.7671 25.2107 19.2802 28.3276 12.0158 28.3276C7.63573 28.4351 3.14886 27.0379 0.905426 25.2107Z"
        fill="white" />
</svg>